<?xml version="1.0"?>
<svg xmlns="http://www.w3.org/2000/svg" xmlns:xlink="http://www.w3.org/1999/xlink" xmlns:svgjs="http://svgjs.com/svgjs" version="1.1" width="512px" height="512px" x="0" y="0" viewBox="0 0 512.002 512.002" style="enable-background:new 0 0 512 512" xml:space="preserve" class=""><g><path d="m10 56.001h84.979c5.641 25.388 56.399 253.798 58.021 261.097v59.909c-22.795 4.646-40 24.847-40 48.994 0 27.57 22.43 50 50 50 24.146 0 44.348-17.205 48.994-40h37.006c5.522 0 10-4.478 10-10s-4.478-10-10-10h-37.006c-3.987-19.563-19.431-35.007-38.994-38.994v-51.006h299c4.889 0 9.061-3.534 9.864-8.356l30-180c1.012-6.071-3.666-11.644-9.864-11.644h-370.979l-18.26-82.169c-1.017-4.576-5.075-7.831-9.762-7.831h-92.999c-5.522 0-10 4.478-10 10s4.478 10 10 10zm359 180v70h-103v-70zm-103-20v-70h103v70zm-20 90h-74.979l-15.556-70h90.535zm-53 120c0 16.542-13.458 30-30 30s-30-13.458-30-30 13.458-30 30-30 30 13.458 30 30zm270.528-120h-74.528v-70h86.195zm15.001-90h-89.529v-70h101.195zm-232.529-70v70h-94.979l-15.556-70z" fill="#ffffff" data-original="#000000" class=""/><path d="m436 376.001c-24.146 0-44.348 17.205-48.994 40h-48.005c-5.522 0-10 4.478-10 10s4.478 10 10 10h48.005c4.646 22.795 24.847 40 48.994 40 27.57 0 50-22.43 50-50s-22.43-50-50-50zm0 80c-16.542 0-30-13.458-30-30s13.458-30 30-30 30 13.458 30 30-13.458 30-30 30z" fill="#ffffff" data-original="#000000" class=""/><circle cx="294" cy="426.001" r="10" fill="#ffffff" data-original="#000000" class=""/></g></svg>
